<svg width="40" height="36" viewBox="0 0 40 36" fill="none" xmlns="http://www.w3.org/2000/svg">
<path d="M32.4205 10.7584V7.13755H28.7997V4.20426H32.4205V0.537598H35.3537V4.20426H39.0204V7.13755H35.3537V10.7584H32.4205ZM4.01796 35.4167C3.04149 35.4167 2.21448 35.0779 1.53691 34.4003C0.859308 33.7227 0.520508 32.8957 0.520508 31.9192V11.3684C0.520508 10.3919 0.859293 9.56486 1.53686 8.88729C2.21443 8.20972 3.04145 7.87093 4.01791 7.87093H9.38747L12.7791 4.20426H23.5747V7.13755H14.0695L10.6602 10.8042H4.01796C3.85342 10.8042 3.71825 10.8571 3.61247 10.9629C3.50672 11.0687 3.45384 11.2038 3.45384 11.3684V31.9192C3.45384 32.0838 3.50672 32.2189 3.61247 32.3247C3.71825 32.4305 3.85342 32.4834 4.01796 32.4834H31.8563C32.0514 32.4834 32.1942 32.4305 32.2848 32.3247C32.3753 32.2189 32.4205 32.0838 32.4205 31.9192V15.9833H35.3537V31.9192C35.3537 32.8957 35.015 33.7227 34.3374 34.4003C33.6599 35.0779 32.8328 35.4167 31.8563 35.4167H4.01796ZM17.9143 29.2115C20.0637 29.2115 21.87 28.48 23.3331 27.0168C24.7963 25.5537 25.5278 23.7551 25.5278 21.6209C25.5278 19.4867 24.7963 17.6881 23.3331 16.2249C21.87 14.7618 20.0637 14.0302 17.9143 14.0302C15.7648 14.0302 13.9661 14.7618 12.5183 16.2249C11.0704 17.6881 10.3465 19.4867 10.3465 21.6209C10.3465 23.7551 11.0704 25.5537 12.5183 27.0168C13.9661 28.48 15.7648 29.2115 17.9143 29.2115ZM17.9143 26.2783C16.5757 26.2783 15.4686 25.8301 14.5931 24.9337C13.7175 24.0373 13.2798 22.9302 13.2798 21.6125C13.2798 20.2948 13.7175 19.1905 14.5931 18.2997C15.4686 17.4089 16.5757 16.9635 17.9143 16.9635C19.2528 16.9635 20.3675 17.4117 21.2583 18.3081C22.1491 19.2045 22.5945 20.3116 22.5945 21.6293C22.5945 22.947 22.1491 24.0512 21.2583 24.9421C20.3675 25.8329 19.2528 26.2783 17.9143 26.2783Z" fill="white"/>
</svg>
