<svg width="20" height="20" viewBox="0 0 20 20" fill="none" xmlns="http://www.w3.org/2000/svg">
<g id="attach_file_FILL0_wght300_GRAD0_opsz20 1">
<path id="Vector" d="M9.50007 17.9037C8.28106 17.9037 7.25835 17.4662 6.43197 16.5912C5.60558 15.7163 5.19238 14.6762 5.19238 13.4711V5.11047C5.19238 4.24736 5.49424 3.51048 6.09795 2.89985C6.70164 2.28921 7.43504 1.98389 8.29815 1.98389C9.18904 1.98389 9.92939 2.30657 10.5192 2.95193C11.109 3.59729 11.4039 4.35847 11.4039 5.23547V13.0688C11.4039 13.5975 11.2153 14.0434 10.838 14.4068C10.4607 14.7702 10.0146 14.9518 9.49984 14.9518C8.94337 14.9518 8.48698 14.7528 8.13067 14.3547C7.77438 13.9566 7.59624 13.4933 7.59624 12.9647V4.83964H8.8398V13.0688C8.8398 13.2531 8.90377 13.4092 9.03172 13.5372C9.15966 13.6651 9.31578 13.7291 9.50007 13.7291C9.68436 13.7291 9.84048 13.6651 9.96842 13.5372C10.0964 13.4092 10.1603 13.2531 10.1603 13.0688V5.11047C10.1603 4.59294 9.97929 4.14973 9.6172 3.78082C9.2551 3.41191 8.81519 3.22745 8.29747 3.22745C7.77976 3.22745 7.34008 3.41538 6.97842 3.79124C6.61679 4.16709 6.43597 4.62072 6.43597 5.15214V13.6169C6.43597 14.4716 6.73644 15.1925 7.3374 15.7796C7.93836 16.3666 8.65925 16.6602 9.50007 16.6602C10.3826 16.6602 11.1139 16.3493 11.694 15.7275C12.2741 15.1057 12.5642 14.3674 12.5642 13.5127V4.83964H13.8078V13.6169C13.8078 14.8081 13.3911 15.8204 12.5578 16.6537C11.7244 17.4871 10.7052 17.9037 9.50007 17.9037Z" fill="#0E151E"/>
</g>
</svg>
