<svg width="20" height="20" viewBox="0 0 20 20" fill="none" xmlns="http://www.w3.org/2000/svg">
<g id="done_all_FILL0_wght300_GRAD0_opsz24 1">
<path id="Vector" d="M6.16995 14.1316C5.84551 14.4525 5.32277 14.4511 5.00008 14.1284L1.60909 10.7374C1.36356 10.4919 1.365 10.0933 1.6123 9.84961C1.85708 9.60835 2.25066 9.60977 2.49368 9.8528L5.50008 12.8592C5.55319 12.9123 5.6393 12.9123 5.69241 12.8592C5.79863 12.753 5.97085 12.753 6.07707 12.8592L6.32262 13.1048C6.5654 13.3476 6.56432 13.7415 6.32022 13.9829L6.16995 14.1316ZM10.9989 14.0046C10.6083 14.3952 9.97518 14.3952 9.58466 14.0046L6.31101 10.731C6.06799 10.488 6.06656 10.0944 6.30782 9.84961C6.55156 9.60231 6.95008 9.60087 7.19561 9.84639L9.93821 12.589C10.1335 12.7843 10.4501 12.7843 10.6453 12.589L17.5129 5.72139C17.7584 5.47586 18.157 5.47731 18.4007 5.72461C18.642 5.96938 18.6405 6.36296 18.3975 6.60598L10.9989 14.0046ZM10.4424 9.85277C10.1994 10.0958 9.80579 10.0972 9.56101 9.85597C9.31371 9.61222 9.31227 9.21371 9.55779 8.96818L12.7982 5.7278C13.0412 5.48477 13.4348 5.48335 13.6796 5.72461C13.9269 5.96835 13.9283 6.36686 13.6828 6.61239L10.4424 9.85277Z" fill="#A167FF"/>
</g>
</svg>
