<svg width="16" height="17" viewBox="0 0 16 17" fill="none" xmlns="http://www.w3.org/2000/svg">
<g id="done_all_FILL0_wght300_GRAD0_opsz24 1">
<path id="Vector" d="M4.93577 11.8053C4.67621 12.062 4.25802 12.0609 3.99987 11.8027L1.28707 9.08991C1.09065 8.89349 1.09181 8.57468 1.28964 8.37968C1.48547 8.18668 1.80033 8.18782 1.99475 8.38224L4.39987 10.7874C4.44236 10.8298 4.51124 10.8298 4.55373 10.7874C4.63871 10.7024 4.77648 10.7024 4.86146 10.7874L5.0579 10.9838C5.25212 11.178 5.25126 11.4932 5.05598 11.6864L4.93577 11.8053ZM8.94032 11.5623C8.5498 11.9528 7.91663 11.9528 7.52611 11.5623L5.04861 9.08479C4.8542 8.89037 4.85306 8.57551 5.04606 8.37968C5.24105 8.18185 5.55987 8.18069 5.75629 8.37711L7.87966 10.5005C8.07492 10.6957 8.39151 10.6957 8.58677 10.5005L14.0101 5.07711C14.2066 4.88069 14.5254 4.88185 14.7204 5.07968C14.9134 5.27551 14.9122 5.59037 14.7178 5.78479L8.94032 11.5623ZM8.35372 8.38222C8.1593 8.57664 7.84443 8.57778 7.64861 8.38477C7.45077 8.18978 7.44962 7.87096 7.64604 7.67454L10.2383 5.08224C10.4328 4.88782 10.7476 4.88668 10.9434 5.07968C11.1413 5.27468 11.1424 5.59349 10.946 5.78991L8.35372 8.38222Z" fill="white"/>
</g>
</svg>
