<svg width="24" height="25" viewBox="0 0 24 25" fill="none" xmlns="http://www.w3.org/2000/svg">
<g id="edit_square_FILL0_wght300_GRAD0_opsz20 1">
<path id="Vector" d="M5.7078 22.9749C5.25766 22.9749 4.87718 22.8195 4.56635 22.5086C4.25551 22.1978 4.1001 21.8173 4.1001 21.3672V8.78268C4.1001 8.33254 4.25551 7.95206 4.56635 7.64122C4.87718 7.33039 5.25766 7.17497 5.7078 7.17497H13.1481L11.8482 8.47495H5.7078C5.63086 8.47495 5.56034 8.507 5.49622 8.5711C5.43212 8.63522 5.40007 8.70574 5.40007 8.78268V21.3672C5.40007 21.4442 5.43212 21.5147 5.49622 21.5788C5.56034 21.6429 5.63086 21.6749 5.7078 21.6749H18.2923C18.3693 21.6749 18.4398 21.6429 18.5039 21.5788C18.568 21.5147 18.6001 21.4442 18.6001 21.3672V15.2864L19.9001 13.9615V21.3672C19.9001 21.8174 19.7446 22.1978 19.4338 22.5087C19.123 22.8195 18.7425 22.9749 18.2923 22.9749H5.7078V22.9749ZM16.7059 7.24612L17.6597 8.19995L11.4001 14.4V15.6749H12.6751L18.9193 9.47495L19.8039 10.3941L13.2231 16.9749H10.1001V13.8769L16.7059 7.24612ZM19.8039 10.3941L16.7059 7.24612L18.6193 5.33268C18.9261 5.02756 19.2992 4.875 19.7388 4.875C20.1784 4.875 20.5539 5.03077 20.8654 5.3423L21.736 6.20027C22.0518 6.51801 22.2096 6.89682 22.2096 7.33672C22.2096 7.77661 22.0507 8.15281 21.7327 8.46532L19.8039 10.3941Z" fill="#A167FF"/>
</g>
</svg>
