<svg width="236" height="11" viewBox="0 0 236 11" fill="none" xmlns="http://www.w3.org/2000/svg">
<path d="M4.28428 10.2966C3.48455 10.2966 2.71338 10.1395 1.97077 9.82529C1.22816 9.51111 0.571238 9.0684 0 8.49716L0.913981 7.44037C1.45666 7.97353 2.00885 8.36863 2.57057 8.62569C3.14181 8.88275 3.73685 9.01128 4.35569 9.01128C4.84124 9.01128 5.26491 8.94463 5.62669 8.81134C5.998 8.66853 6.28362 8.4686 6.48355 8.21154C6.68348 7.95449 6.78345 7.66411 6.78345 7.34041C6.78345 6.89294 6.62636 6.55019 6.31218 6.31218C5.998 6.07416 5.47912 5.89327 4.75555 5.7695L3.08468 5.49817C2.1707 5.33631 1.48522 5.04117 1.02823 4.61275C0.580758 4.18432 0.357024 3.61308 0.357024 2.89903C0.357024 2.32779 0.509354 1.82796 0.814014 1.39953C1.11867 0.961583 1.5471 0.623601 2.0993 0.385586C2.66102 0.14757 3.30842 0.0285615 4.04151 0.0285615C4.76508 0.0285615 5.47436 0.14757 6.16937 0.385586C6.87389 0.614081 7.50702 0.947303 8.06873 1.38525L7.24044 2.52773C6.16461 1.70895 5.0745 1.29957 3.9701 1.29957C3.53215 1.29957 3.15133 1.36145 2.82763 1.48522C2.50393 1.60899 2.25163 1.78512 2.07074 2.01361C1.88985 2.23259 1.7994 2.48964 1.7994 2.78478C1.7994 3.19417 1.93745 3.50835 2.21355 3.72733C2.48964 3.93678 2.94664 4.08911 3.58452 4.18432L5.19826 4.45566C6.25505 4.62703 7.03098 4.93645 7.52606 5.38392C8.02113 5.83139 8.26867 6.44547 8.26867 7.22616C8.26867 7.83548 8.10206 8.3734 7.76883 8.83991C7.43561 9.2969 6.9691 9.65392 6.3693 9.91098C5.7695 10.168 5.0745 10.2966 4.28428 10.2966Z" fill="#A167FF"/>
<path d="M25.367 10.1538V0.15709H29.994C30.6509 0.15709 31.2222 0.285619 31.7077 0.542676C32.1933 0.790212 32.5741 1.13772 32.8502 1.58519C33.1263 2.03265 33.2643 2.55153 33.2643 3.14181C33.2643 3.73209 33.1263 4.25096 32.8502 4.69843C32.5741 5.1459 32.1885 5.49817 31.6934 5.75522C31.2079 6.00276 30.6414 6.12653 29.994 6.12653H26.8665V10.1538H25.367ZM26.8665 4.85552H29.8369C30.4272 4.85552 30.8937 4.70319 31.2364 4.39853C31.5887 4.08435 31.7648 3.6702 31.7648 3.15609C31.7648 2.64197 31.5887 2.23259 31.2364 1.92793C30.8937 1.62327 30.4272 1.47094 29.8369 1.47094H26.8665V4.85552Z" fill="#A167FF"/>
<path d="M48.0675 10.1538L52.1947 0.15709H53.9656L58.0499 10.1538H56.4219L55.2651 7.22616H50.7952L49.6242 10.1538H48.0675ZM51.2808 5.98372H54.7796L53.0373 1.58519L51.2808 5.98372Z" fill="#A167FF"/>
<path d="M79.0863 10.3108C78.3437 10.3108 77.6535 10.1823 77.0156 9.92526C76.3872 9.65868 75.8302 9.29214 75.3447 8.82563C74.8687 8.34959 74.4974 7.80216 74.2308 7.18332C73.9737 6.55495 73.8452 5.87899 73.8452 5.15542C73.8452 4.43185 73.9737 3.76065 74.2308 3.14181C74.4974 2.51345 74.8687 1.96601 75.3447 1.4995C75.8302 1.02347 76.392 0.656924 77.0299 0.399866C77.6677 0.133289 78.3532 0 79.0863 0C79.6099 0 80.1193 0.0714047 80.6144 0.214214C81.119 0.347503 81.5807 0.542675 81.9996 0.799733C82.4281 1.05679 82.7994 1.36621 83.1135 1.72799L82.1139 2.75622C81.7426 2.30875 81.2903 1.97077 80.7572 1.74227C80.224 1.50426 79.6671 1.38525 79.0863 1.38525C78.5532 1.38525 78.0581 1.48046 77.6011 1.67087C77.1536 1.86128 76.7633 2.12786 76.4301 2.4706C76.0968 2.80383 75.835 3.19893 75.6446 3.65592C75.4637 4.11291 75.3733 4.61275 75.3733 5.15542C75.3733 5.68858 75.4637 6.18365 75.6446 6.64064C75.835 7.09763 76.1016 7.4975 76.4443 7.84024C76.7871 8.18298 77.1869 8.44956 77.6439 8.63997C78.1009 8.83039 78.596 8.92559 79.1292 8.92559C79.7099 8.92559 80.2573 8.81135 80.7715 8.58285C81.2951 8.34483 81.7378 8.01161 82.0996 7.58318L83.085 8.58285C82.7517 8.93511 82.3709 9.24453 81.9425 9.51111C81.5236 9.76817 81.0666 9.9681 80.5715 10.1109C80.086 10.2442 79.5909 10.3108 79.0863 10.3108Z" fill="#A167FF"/>
<path d="M100.261 10.1538V0.15709H107.63V1.47094H101.761V4.46994H105.616V5.74094H101.761V8.83991H107.687V10.1538H100.261Z" fill="#A167FF"/>
<path d="M129.341 0.131836L130.219 4.60865L134.696 5.48719L130.219 6.36573L129.341 10.8425L128.462 6.36573L123.985 5.48719L128.462 4.60865L129.341 0.131836Z" fill="white"/>
<path d="M156.241 10.3108C155.499 10.3108 154.808 10.1823 154.17 9.92526C153.542 9.65868 152.985 9.29214 152.5 8.82563C152.023 8.34959 151.652 7.80216 151.386 7.18332C151.129 6.55495 151 5.87899 151 5.15542C151 4.43185 151.129 3.76065 151.386 3.14181C151.652 2.51345 152.023 1.96601 152.5 1.4995C152.985 1.02347 153.547 0.656924 154.185 0.399866C154.823 0.133289 155.508 0 156.241 0C156.765 0 157.274 0.0714047 157.769 0.214214C158.274 0.347503 158.736 0.542675 159.154 0.799733C159.583 1.05679 159.954 1.36621 160.268 1.72799L159.269 2.75622C158.897 2.30875 158.445 1.97077 157.912 1.74227C157.379 1.50426 156.822 1.38525 156.241 1.38525C155.708 1.38525 155.213 1.48046 154.756 1.67087C154.308 1.86128 153.918 2.12786 153.585 2.4706C153.252 2.80383 152.99 3.19893 152.799 3.65592C152.619 4.11291 152.528 4.61275 152.528 5.15542C152.528 5.68858 152.619 6.18365 152.799 6.64064C152.99 7.09763 153.256 7.4975 153.599 7.84024C153.942 8.18298 154.342 8.44956 154.799 8.63997C155.256 8.83039 155.751 8.92559 156.284 8.92559C156.865 8.92559 157.412 8.81135 157.926 8.58285C158.45 8.34483 158.893 8.01161 159.254 7.58318L160.24 8.58285C159.907 8.93511 159.526 9.24453 159.097 9.51111C158.678 9.76817 158.221 9.9681 157.726 10.1109C157.241 10.2442 156.746 10.3108 156.241 10.3108Z" fill="white"/>
<path d="M177.416 10.1538V0.15709H178.915V4.44137H184.228V0.15709H185.727V10.1538H184.228V5.79807H178.915V10.1538H177.416Z" fill="white"/>
<path d="M202.473 10.1538L206.601 0.15709H208.371L212.456 10.1538H210.828L209.671 7.22616H205.201L204.03 10.1538H202.473ZM205.687 5.98372H209.185L207.443 1.58519L205.687 5.98372Z" fill="white"/>
<path d="M230.138 10.1538V1.48522H226.625V0.15709H235.151V1.48522H231.638V10.1538H230.138Z" fill="white"/>
</svg>
