<svg width="25" height="24" viewBox="0 0 25 24" fill="none" xmlns="http://www.w3.org/2000/svg">
<g id="more_horiz_FILL0_wght300_GRAD0_opsz20 1">
<path id="Vector" d="M7.52707 13.3001C7.16812 13.3001 6.86261 13.1723 6.61052 12.9167C6.35846 12.6611 6.23242 12.3538 6.23242 11.9949C6.23242 11.6359 6.36023 11.3304 6.61585 11.0783C6.87146 10.8262 7.17875 10.7002 7.5377 10.7002C7.89665 10.7002 8.20216 10.828 8.45422 11.0836C8.70631 11.3392 8.83235 11.6465 8.83235 12.0055C8.83235 12.3644 8.70454 12.6699 8.44892 12.922C8.19331 13.1741 7.88602 13.3001 7.52707 13.3001ZM12.6963 13.3001C12.3373 13.3001 12.0318 13.1723 11.7797 12.9167C11.5277 12.6611 11.4016 12.3538 11.4016 11.9949C11.4016 11.6359 11.5294 11.3304 11.785 11.0783C12.0407 10.8262 12.3479 10.7002 12.7069 10.7002C13.0658 10.7002 13.3714 10.828 13.6234 11.0836C13.8755 11.3392 14.0016 11.6465 14.0016 12.0055C14.0016 12.3644 13.8738 12.6699 13.6181 12.922C13.3625 13.1741 13.0552 13.3001 12.6963 13.3001ZM17.8655 13.3001C17.5065 13.3001 17.201 13.1723 16.949 12.9167C16.6969 12.6611 16.5708 12.3538 16.5708 11.9949C16.5708 11.6359 16.6987 11.3304 16.9543 11.0783C17.2099 10.8262 17.5172 10.7002 17.8761 10.7002C18.2351 10.7002 18.5406 10.828 18.7927 11.0836C19.0447 11.3392 19.1708 11.6465 19.1708 12.0055C19.1708 12.3644 19.043 12.6699 18.7873 12.922C18.5317 13.1741 18.2244 13.3001 17.8655 13.3001Z" fill="white"/>
</g>
</svg>
