<svg width="20" height="20" viewBox="0 0 20 20" fill="none" xmlns="http://www.w3.org/2000/svg">
<g id="mystery_FILL0_wght300_GRAD0_opsz20 1">
<path id="Vector" d="M8.99434 14.5003C10.5119 14.5003 11.8088 13.9659 12.8852 12.897C13.9616 11.8281 14.4998 10.5311 14.4998 9.00578C14.4998 7.48824 13.9629 6.19128 12.8891 5.11489C11.8153 4.0385 10.5189 3.50031 8.99982 3.50031C7.47301 3.50031 6.17464 4.03721 5.10471 5.11101C4.03478 6.18483 3.49982 7.48126 3.49982 9.00031C3.49982 10.5271 4.03425 11.8255 5.10313 12.8954C6.17199 13.9653 7.46906 14.5003 8.99434 14.5003ZM8.99982 15.5836C8.08771 15.5836 7.23308 15.4116 6.43594 15.0676C5.63879 14.7236 4.93813 14.253 4.33396 13.6557C3.72981 13.0585 3.2592 12.3613 2.92213 11.564C2.58505 10.7668 2.4165 9.91208 2.4165 8.99987C2.4165 8.09524 2.58852 7.24123 2.93255 6.43783C3.27656 5.63441 3.74567 4.93527 4.33988 4.34041C4.9341 3.74555 5.63053 3.27626 6.42917 2.93255C7.22782 2.58885 8.08406 2.41699 8.99788 2.41699C9.90409 2.41699 10.7589 2.58901 11.5623 2.93303C12.3657 3.27705 13.0647 3.74633 13.6593 4.34087C14.2538 4.93542 14.7231 5.63344 15.0671 6.43491C15.4111 7.2364 15.5831 8.09184 15.5831 9.00124C15.5831 9.81258 15.4433 10.5788 15.1638 11.2999C14.8842 12.0211 14.4978 12.6744 14.0046 13.2599L17.5831 16.8384L16.8251 17.5836L13.2466 14.0179C12.6651 14.5108 12.0163 14.895 11.3001 15.1704C10.5839 15.4459 9.81712 15.5836 8.99982 15.5836Z" fill="white"/>
</g>
</svg>
