<svg width="12" height="13" viewBox="0 0 12 13" fill="none" xmlns="http://www.w3.org/2000/svg">
<path d="M1.50218 11.1002H2.37653L8.39965 5.07713L7.5253 4.20277L1.50218 10.2259V11.1002ZM10.6547 4.35407L8.25476 1.94128L9.00733 1.18873C9.22528 0.970788 9.47997 0.861816 9.77141 0.861816C10.0629 0.861816 10.3176 0.970788 10.5355 1.18873L11.4137 2.06692C11.6205 2.27375 11.7218 2.53058 11.7175 2.83742C11.7133 3.14425 11.6077 3.40108 11.4009 3.60792L10.6547 4.35407ZM9.915 5.08738L2.8355 12.1669H0.435547V9.76692L7.51503 2.68742L9.915 5.08738ZM7.9676 4.64508L7.5253 4.20277L8.39965 5.07713L7.9676 4.64508Z" fill="#A167FF"/>
</svg>
